<svg width="37" height="32" viewBox="0 0 37 32" fill="none" xmlns="http://www.w3.org/2000/svg">
<path d="M29.1052 8.62271C32.9706 5.84353 37.2193 1.76259 36.6106 0.930964C36.0019 0.0993418 30.7815 2.80885 26.9152 5.6066C26.5667 5.86786 26.2192 6.11057 25.8903 6.35422C25.2463 6.20944 23.9026 5.917 22.1906 5.54978C22.2092 5.55073 22.2463 5.55264 22.2648 5.5536L23.3083 4.80693C23.443 4.72079 23.4535 4.5166 23.3303 4.37998L22.6002 3.3746C22.4965 3.22037 22.3128 3.1737 22.1771 3.2784L21.1337 4.02506C21.1337 4.02506 21.0537 4.13263 21.0313 4.20592L19.8141 5.07394C18.36 4.75721 16.777 4.41524 15.2125 4.07422L16.2364 3.34516C16.3711 3.25903 16.3816 3.05483 16.2583 2.91821L15.5283 1.91284C15.4246 1.75861 15.2409 1.71194 15.1052 1.81663L14.0617 2.5633C14.0617 2.5633 13.9818 2.67086 13.9594 2.74416L12.7812 3.57696C8.805 2.72107 5.4718 2.02853 5.35852 2.05993C5.0753 2.13843 3.58294 3.29009 3.58294 3.29009C3.21592 3.5504 2.96124 3.79788 2.97789 3.83596C3.01311 3.875 3.43581 3.61755 3.78331 3.37485L11.0145 6.44545C10.7422 6.6734 10.5822 6.88853 10.6341 6.96564C10.7036 7.06228 11.0463 6.91239 11.3947 6.65112L11.4338 6.61591L12.854 7.22869C12.6012 7.43904 12.4413 7.65416 12.4931 7.73128C12.5626 7.82791 12.9054 7.67803 13.2538 7.41676L14.5479 7.94861L15.3165 8.56511C15.0062 8.80972 14.7886 9.0591 14.8405 9.13622C14.91 9.23285 15.2527 9.08297 15.6011 8.82171L15.6197 8.82266L17.1403 10.0176C16.8299 10.2622 16.6124 10.5116 16.6828 10.5896C16.7523 10.6863 17.095 10.5364 17.4435 10.2751L18.8379 11.3891C16.265 13.2855 15.2577 14.0527 13.3436 15.4432C11.4109 16.8328 9.64151 18.3053 8.21482 19.6278C6.04155 19.181 1.75357 18.2347 1.75357 18.2347L0.601607 18.9199L5.11098 22.7998C4.83296 23.1391 4.61445 23.4071 4.49161 23.6241C3.73329 24.2552 3.28343 24.6787 3.3353 24.7558C3.38717 24.8329 3.92222 24.5627 4.7305 24.0459C4.97564 23.984 5.31836 23.8341 5.75581 23.6519L8.01928 29.2216L9.0499 28.3626C9.0499 28.3626 9.55033 23.6981 9.8086 21.571C11.4566 20.6507 13.3368 19.5562 15.2981 18.3356C17.6944 16.6162 18.774 15.89 20.9947 14.3291L21.5975 15.9979C21.2295 16.2768 20.9925 16.5438 21.0619 16.6404C21.1138 16.7176 21.4175 16.6029 21.764 16.3787L22.4325 18.2185L22.414 18.2175C22.046 18.4964 21.808 18.782 21.8784 18.86C21.9303 18.9372 22.2525 18.8235 22.5805 18.5984L22.9245 19.5094L23.0386 20.9112C22.6716 21.1715 22.4335 21.4571 22.503 21.5537C22.5549 21.6308 22.801 21.5504 23.0899 21.3605L23.2149 22.9118L23.1778 22.9099C22.8098 23.1887 22.5718 23.4743 22.6412 23.5709C22.6931 23.6481 22.9587 23.55 23.2477 23.3602L23.8501 31.1896C23.5202 31.4519 23.1318 31.7669 23.1484 31.805C23.1837 31.844 23.4902 31.6737 23.8572 31.4134C23.8572 31.4134 25.4376 30.3593 25.58 30.1246C25.6404 30.0347 26.0379 26.6491 26.5058 22.6157L27.684 21.7829C27.684 21.7829 27.8325 21.7905 27.8901 21.7563L28.9336 21.0096C29.0683 20.9235 29.0788 20.7193 28.9555 20.5827L28.2255 19.5773C28.1218 19.4231 27.938 19.3764 27.8024 19.4811L26.7784 20.2101C26.9533 18.6185 27.1283 17.0268 27.2984 15.528L28.5156 14.66C28.5156 14.66 28.6641 14.6676 28.7217 14.6333L29.7651 13.8867C29.8999 13.8005 29.9104 13.5963 29.7871 13.4597L29.0571 12.4544C28.9533 12.3001 28.7696 12.2534 28.6339 12.3581L27.5905 13.1048C27.5905 13.1048 27.5886 13.1419 27.5496 13.1772C27.7497 11.4565 27.8936 10.1052 27.9651 9.43887C28.2941 9.19521 28.6416 8.95251 29.0086 8.6922L29.1052 8.62271Z" fill="#FF5722"/>
</svg>

