<svg width="170" height="38" viewBox="0 0 170 38" fill="none" xmlns="http://www.w3.org/2000/svg">
<g clip-path="url(#clip0_2012_226)">
<path d="M29.1052 9.62271C32.9706 6.84353 37.2193 2.76259 36.6106 1.93096C36.0019 1.09934 30.7815 3.80885 26.9152 6.6066C26.5667 6.86786 26.2192 7.11057 25.8903 7.35422C25.2463 7.20944 23.9026 6.917 22.1906 6.54978C22.2092 6.55073 22.2463 6.55264 22.2648 6.5536L23.3083 5.80693C23.443 5.72079 23.4535 5.5166 23.3303 5.37998L22.6002 4.3746C22.4965 4.22037 22.3128 4.1737 22.1771 4.2784L21.1337 5.02506C21.1337 5.02506 21.0537 5.13263 21.0313 5.20592L19.8141 6.07394C18.36 5.75721 16.777 5.41524 15.2125 5.07422L16.2364 4.34516C16.3711 4.25903 16.3816 4.05483 16.2583 3.91821L15.5283 2.91284C15.4246 2.75861 15.2409 2.71194 15.1052 2.81663L14.0617 3.5633C14.0617 3.5633 13.9818 3.67086 13.9594 3.74416L12.7812 4.57696C8.805 3.72107 5.4718 3.02853 5.35852 3.05993C5.0753 3.13843 3.58294 4.29009 3.58294 4.29009C3.21592 4.5504 2.96124 4.79788 2.97789 4.83596C3.01311 4.875 3.43581 4.61755 3.78331 4.37485L11.0145 7.44545C10.7422 7.6734 10.5822 7.88853 10.6341 7.96564C10.7036 8.06228 11.0463 7.91239 11.3947 7.65112L11.4338 7.61591L12.854 8.22869C12.6012 8.43904 12.4413 8.65416 12.4931 8.73128C12.5626 8.82791 12.9054 8.67803 13.2538 8.41676L14.5479 8.94861L15.3165 9.56511C15.0062 9.80972 14.7886 10.0591 14.8405 10.1362C14.91 10.2329 15.2527 10.083 15.6011 9.82171L15.6197 9.82266L17.1403 11.0176C16.8299 11.2622 16.6124 11.5116 16.6828 11.5896C16.7523 11.6863 17.095 11.5364 17.4435 11.2751L18.8379 12.3891C16.265 14.2855 15.2577 15.0527 13.3436 16.4432C11.4109 17.8328 9.64151 19.3053 8.21482 20.6278C6.04155 20.181 1.75357 19.2347 1.75357 19.2347L0.601607 19.9199L5.11098 23.7998C4.83296 24.1391 4.61445 24.4071 4.49161 24.6241C3.73329 25.2552 3.28343 25.6787 3.3353 25.7558C3.38717 25.8329 3.92222 25.5627 4.7305 25.0459C4.97564 24.984 5.31836 24.8341 5.75581 24.6519L8.01928 30.2216L9.0499 29.3626C9.0499 29.3626 9.55033 24.6981 9.8086 22.571C11.4566 21.6507 13.3368 20.5562 15.2981 19.3356C17.6944 17.6162 18.774 16.89 20.9947 15.3291L21.5975 16.9979C21.2295 17.2768 20.9925 17.5438 21.0619 17.6404C21.1138 17.7176 21.4175 17.6029 21.764 17.3787L22.4325 19.2185L22.414 19.2175C22.046 19.4964 21.808 19.782 21.8784 19.86C21.9303 19.9372 22.2525 19.8235 22.5805 19.5984L22.9245 20.5094L23.0386 21.9112C22.6716 22.1715 22.4335 22.4571 22.503 22.5537C22.5549 22.6308 22.801 22.5504 23.0899 22.3605L23.2149 23.9118L23.1778 23.9099C22.8098 24.1887 22.5718 24.4743 22.6412 24.5709C22.6931 24.6481 22.9587 24.55 23.2477 24.3602L23.8501 32.1896C23.5202 32.4519 23.1318 32.7669 23.1484 32.805C23.1837 32.844 23.4902 32.6737 23.8572 32.4134C23.8572 32.4134 25.4376 31.3593 25.58 31.1246C25.6404 31.0347 26.0379 27.6491 26.5058 23.6157L27.684 22.7829C27.684 22.7829 27.8325 22.7905 27.8901 22.7563L28.9336 22.0096C29.0683 21.9235 29.0788 21.7193 28.9555 21.5827L28.2255 20.5773C28.1218 20.4231 27.938 20.3764 27.8024 20.4811L26.7784 21.2101C26.9533 19.6185 27.1283 18.0268 27.2984 16.528L28.5156 15.66C28.5156 15.66 28.6641 15.6676 28.7217 15.6333L29.7651 14.8867C29.8999 14.8005 29.9104 14.5963 29.7871 14.4597L29.0571 13.4544C28.9533 13.3001 28.7696 13.2534 28.6339 13.3581L27.5905 14.1048C27.5905 14.1048 27.5886 14.1419 27.5496 14.1772C27.7497 12.4565 27.8936 11.1052 27.9651 10.4389C28.2941 10.1952 28.6416 9.95251 29.0086 9.6922L29.1052 9.62271Z" fill="#FF5722"/>
<path d="M163.894 21.8762C163.894 22.3087 163.874 22.755 163.832 23.215C163.81 23.4646 163.598 23.6524 163.348 23.6524H150.572C150.285 23.6524 150.056 23.8978 150.101 24.1817C150.256 25.1588 150.627 25.9297 151.211 26.4945C151.922 27.134 152.786 27.4537 153.805 27.4537C155.205 27.4537 156.211 26.9079 156.823 25.8164C156.917 25.6487 157.09 25.5353 157.282 25.5353H162.798C163.119 25.5353 163.356 25.8389 163.254 26.1444C162.903 27.206 162.358 28.1753 161.621 29.0524C160.768 30.0945 159.69 30.9115 158.388 31.5036C157.085 32.0957 155.629 32.3918 154.018 32.3918C152.076 32.3918 150.347 31.9773 148.831 31.1484C147.315 30.3194 146.131 29.1353 145.279 27.5958C144.426 26.0564 144 24.2564 144 22.1959C144 20.1354 144.414 18.3354 145.243 16.796C146.096 15.2565 147.28 14.0723 148.796 13.2434C150.311 12.4144 152.052 12 154.018 12C155.936 12 157.642 12.4026 159.134 13.2079C160.626 14.0131 161.786 15.1618 162.615 16.6539C163.468 18.1459 163.894 19.8867 163.894 21.8762ZM157.184 20.2775C157.456 20.2775 157.681 20.0557 157.649 19.7851C157.552 18.9709 157.206 18.3061 156.611 17.7907C155.901 17.1749 155.013 16.867 153.947 16.867C152.929 16.867 152.064 17.1631 151.354 17.7552C150.79 18.241 150.402 18.8943 150.189 19.715C150.113 20.0074 150.347 20.2775 150.649 20.2775H157.184Z" fill="#162533"/>
<path d="M60.459 26.8867V31H46.8359V26.8867H60.459ZM48.5586 5.40625V31H43.2852V5.40625H48.5586ZM58.6836 15.8301V19.8379H46.8359V15.8301H58.6836ZM60.4414 5.40625V9.53711H46.8359V5.40625H60.4414ZM67.2969 11.9805L70.4434 17.7637L73.6777 11.9805H79.0742L73.6953 21.2793L79.3203 31H73.9062L70.4785 24.8828L67.0508 31H61.6367L67.2617 21.2793L61.8828 11.9805H67.2969ZM86.5977 15.6367V38.3125H81.5352V11.9805H86.2285L86.5977 15.6367ZM98.6387 21.2793V21.6484C98.6387 23.0312 98.4746 24.3145 98.1465 25.498C97.8301 26.6816 97.3613 27.7129 96.7402 28.5918C96.1191 29.459 95.3457 30.1387 94.4199 30.6309C93.5059 31.1113 92.4512 31.3516 91.2559 31.3516C90.0957 31.3516 89.0879 31.1172 88.2324 30.6484C87.377 30.1797 86.6562 29.5234 86.0703 28.6797C85.4961 27.8242 85.0332 26.834 84.6816 25.709C84.3301 24.584 84.0605 23.377 83.873 22.0879V21.1211C84.0605 19.7383 84.3301 18.4727 84.6816 17.3242C85.0332 16.1641 85.4961 15.1621 86.0703 14.3184C86.6562 13.4629 87.3711 12.8008 88.2148 12.332C89.0703 11.8633 90.0723 11.6289 91.2207 11.6289C92.4277 11.6289 93.4883 11.8574 94.4023 12.3145C95.3281 12.7715 96.1016 13.4277 96.7227 14.2832C97.3555 15.1387 97.8301 16.1582 98.1465 17.3418C98.4746 18.5254 98.6387 19.8379 98.6387 21.2793ZM93.5586 21.6484V21.2793C93.5586 20.4707 93.4883 19.7266 93.3477 19.0469C93.2188 18.3555 93.0078 17.752 92.7148 17.2363C92.4336 16.7207 92.0586 16.3223 91.5898 16.041C91.1328 15.748 90.5762 15.6016 89.9199 15.6016C89.2285 15.6016 88.6367 15.7129 88.1445 15.9355C87.6641 16.1582 87.2715 16.4805 86.9668 16.9023C86.6621 17.3242 86.4336 17.8281 86.2812 18.4141C86.1289 19 86.0352 19.6621 86 20.4004V22.8438C86.0586 23.7109 86.2227 24.4902 86.4922 25.1816C86.7617 25.8613 87.1777 26.4004 87.7402 26.7988C88.3027 27.1973 89.041 27.3965 89.9551 27.3965C90.623 27.3965 91.1855 27.25 91.6426 26.957C92.0996 26.6523 92.4688 26.2363 92.75 25.709C93.043 25.1816 93.248 24.5723 93.3652 23.8809C93.4941 23.1895 93.5586 22.4453 93.5586 21.6484ZM107.129 4V31H102.049V4H107.129ZM110.504 21.6836V21.3145C110.504 19.9199 110.703 18.6367 111.102 17.4648C111.5 16.2812 112.08 15.2559 112.842 14.3887C113.604 13.5215 114.541 12.8477 115.654 12.3672C116.768 11.875 118.045 11.6289 119.486 11.6289C120.928 11.6289 122.211 11.875 123.336 12.3672C124.461 12.8477 125.404 13.5215 126.166 14.3887C126.939 15.2559 127.525 16.2812 127.924 17.4648C128.322 18.6367 128.521 19.9199 128.521 21.3145V21.6836C128.521 23.0664 128.322 24.3496 127.924 25.5332C127.525 26.7051 126.939 27.7305 126.166 28.6094C125.404 29.4766 124.467 30.1504 123.354 30.6309C122.24 31.1113 120.963 31.3516 119.521 31.3516C118.08 31.3516 116.797 31.1113 115.672 30.6309C114.559 30.1504 113.615 29.4766 112.842 28.6094C112.08 27.7305 111.5 26.7051 111.102 25.5332C110.703 24.3496 110.504 23.0664 110.504 21.6836ZM115.566 21.3145V21.6836C115.566 22.4805 115.637 23.2246 115.777 23.916C115.918 24.6074 116.141 25.2168 116.445 25.7441C116.762 26.2598 117.172 26.6641 117.676 26.957C118.18 27.25 118.795 27.3965 119.521 27.3965C120.225 27.3965 120.828 27.25 121.332 26.957C121.836 26.6641 122.24 26.2598 122.545 25.7441C122.85 25.2168 123.072 24.6074 123.213 23.916C123.365 23.2246 123.441 22.4805 123.441 21.6836V21.3145C123.441 20.541 123.365 19.8145 123.213 19.1348C123.072 18.4434 122.844 17.834 122.527 17.3066C122.223 16.7676 121.818 16.3457 121.314 16.041C120.811 15.7363 120.201 15.584 119.486 15.584C118.771 15.584 118.162 15.7363 117.658 16.041C117.166 16.3457 116.762 16.7676 116.445 17.3066C116.141 17.834 115.918 18.4434 115.777 19.1348C115.637 19.8145 115.566 20.541 115.566 21.3145Z" fill="#162533"/>
<path d="M140.034 18.0678C138.359 18.0678 137 16.7094 137 15.0339C137 13.3583 138.359 12 140.034 12C141.71 12 143.069 13.3583 143.069 15.0339C143.069 16.7094 141.71 18.0678 140.034 18.0678Z" fill="#FF5722"/>
<path d="M137.075 22.6222V31.33C137.075 31.6025 136.854 31.8234 136.581 31.8234H131.493C131.221 31.8234 131 31.6025 131 31.33V12.4934C131 12.2209 131.221 12 131.493 12H136.581C136.854 12 137.075 12.2209 137.075 12.4934V15.3039V22.6222Z" fill="#162533"/>
</g>
<defs>
<clipPath id="clip0_2012_226">
<rect width="170" height="38" fill="white"/>
</clipPath>
</defs>
</svg>